# xmcd CD database file
#
# Track frame offsets:
#	150
#	25152
#	39051
#	64691
#	85038
#	110357
#	134204
#	155661
#	176231
#	200648
#	222325
#	240674
#	261786
#	278359
#	298681
#	313983
#
# Disc length: 4412 seconds
#
# Revision: 0
# Processed by: cddbd v1.5.2PL0 Copyright (c) Steve Scherf et al.
# Submitted via: CDex 1.50Beta6
#
DISCID=ed113a10
DTITLE=City Jazz - City Jazz
DYEAR=2007
DGENRE=Jazz
TTITLE0=In The Name Of Love
TTITLE1=Walk In Love
TTITLE2=Breezin'
TTITLE3=No Rhyme, No Reason
TTITLE4=Bali Run
TTITLE5=The End Of A Love Affair
TTITLE6=Hard Times
TTITLE7=Movin' On
TTITLE8=Our Spanish Love Song
TTITLE9=The Lady Wants To Know
TTITLE10=I Still Believe (feat. Wendy Moten)
TTITLE11=Django
TTITLE12=NY-LA
TTITLE13=My Romance
TTITLE14=One Note Samba
TTITLE15=Decisions, Decisions
EXTD=YEAR: 2007
EXTT0=
EXTT1=
EXTT2=
EXTT3=
EXTT4=
EXTT5=
EXTT6=
EXTT7=
EXTT8=
EXTT9=
EXTT10=
EXTT11=
EXTT12=
EXTT13=
EXTT14=
EXTT15=
PLAYORDER=
